<?xml version="1.0" encoding="utf-8"?>
<!-- Generator: Adobe Illustrator 24.3.0, SVG Export Plug-In . SVG Version: 6.00 Build 0)  -->
<svg version="1.1" id="Layer_3" xmlns="http://www.w3.org/2000/svg" xmlns:xlink="http://www.w3.org/1999/xlink" x="0px" y="0px"
	 viewBox="0 0 64 64" enable-background="new 0 0 64 64" xml:space="preserve">
<rect x="23" y="21" width="18" height="2"/>
<path d="M23,15v4h18v-4c0-0.6,0.4-1,1-1c2.2,0,4-1.8,4-4s-1.8-4-4-4c-1.4,0-2.6,0.7-3.4,1.9c-0.2,0.3-0.6,0.5-1,0.5
	c-0.4-0.1-0.7-0.3-0.8-0.7C36.2,5.5,34.2,4,32,4s-4.2,1.5-4.8,3.6c-0.1,0.4-0.4,0.7-0.8,0.7c-0.4,0.1-0.8-0.1-1-0.5
	C24.6,6.7,23.4,6,22,6c-2.2,0-4,1.8-4,4s1.8,4,4,4C22.6,14,23,14.4,23,15z"/>
<path d="M48.2,60l-0.8-9.3c-0.2-2.1-1.9-3.7-4-3.7H41c-0.6,0-1-1.8-1-2.3V44l-5,2.8V48h3c0.6,0,1,0.4,1,1v11H48.2z"/>
<path d="M37,60V50h-7c-0.6,0-1-0.4-1-1v-2.2L24,44v2c0,0.6-0.4,1-1,1h-2.4c-2.1,0-3.8,1.6-4,3.7L15.8,60H37z M35,52h1v2h-1V52z
	 M35,56h1v2h-1V56z M28,52h1v2h-1V52z M28,56h1v2h-1V56z"/>
<path d="M42,28h-1v-3H23v3h-1c-0.6,0-1,0.4-1,1s0.4,1,1,1h1v1.1c0,0.7-0.1,1.5-0.3,2.1c-0.8,2.4,0.4,5,2.7,5.9
	c0.9,0.4,1.7,0.6,2.6,0.8v4l3,2h2l3-2v-4c0.9-0.2,1.8-0.5,2.6-0.8c2.3-1,3.5-3.6,2.7-5.9c-0.2-0.7-0.3-1.4-0.3-2.1V30h1
	c0.6,0,1-0.4,1-1S42.6,28,42,28z M36,28c0.6,0,1,0.7,1,1.5S36.6,31,36,31s-1-0.7-1-1.5S35.4,28,36,28z M28,28c0.6,0,1,0.7,1,1.5
	S28.6,31,28,31s-1-0.7-1-1.5S27.4,28,28,28z M36.5,36.9c-0.3,0.2-0.8,0.2-1.1-0.1L32,34.2l-3.4,2.6C28.4,36.9,28.2,37,28,37
	c-0.2,0-0.3,0-0.4-0.1l-2-1l0.9-1.8l1.4,0.7l3.5-2.6c0.4-0.3,0.8-0.3,1.2,0l3.5,2.6l1.3-0.7l1,1.8L36.5,36.9z"/>
</svg>
